<svg width="51" height="41" viewBox="0 0 51 41" fill="none" xmlns="http://www.w3.org/2000/svg">
<path d="M26.4074 0.346655C25.989 -0.080499 25.3036 -0.0876387 24.8764 0.330708L17.9156 7.14804C17.4884 7.56638 17.4813 8.25179 17.8996 8.67895C18.318 9.1061 19.0034 9.11324 19.4306 8.69489L25.618 2.63504L31.6778 8.82247C32.0962 9.24962 32.7816 9.25676 33.2087 8.83842C33.6359 8.42007 33.643 7.73466 33.2247 7.30751L26.4074 0.346655ZM26.4458 27.0972L26.7164 1.11541L24.5514 1.09286L24.2808 27.0747L26.4458 27.0972Z" fill="black"/>
<path d="M1.95312 27.0859V33.5814C1.95312 36.5708 4.37655 38.9943 7.366 38.9943H43.6323C46.6217 38.9943 49.0451 36.5708 49.0451 33.5814V27.0859" stroke="black" stroke-width="2.16515"/>
</svg>
